# xmcd
#
# Track frame offsets:
#	150
#	25401
#	46859
#	75573
#	97338
#	116558
#	128647
#	148694
#	168446
#
# Disc length: 2507 seconds
#
# Revision: 81
# Processed by: cddbd v1.5.2PL0 Copyright (c) Steve Scherf et al.
# Submitted via: Jack! The Knife 20 Magnifico
#
DISCID=7509c909
DTITLE=Led Zeppelin - Led Zeppelin II
DYEAR=1969
DGENRE=Hard Rock
TTITLE0=Whole Lotta Love
TTITLE1=What Is and What Should Never Be
TTITLE2=The Lemon Song
TTITLE3=Thank You
TTITLE4=Heartbreaker
TTITLE5=Living Loving Maid (She's Just a Woman)
TTITLE6=Ramble On
TTITLE7=Moby Dick
TTITLE8=Bring It on Home
EXTD=Jimmy Page
EXTT0=Bonham, Dixon, Jones, Page, Plant
EXTT1=Page, Plant
EXTT2=Bonham, Burnett, Jones, Page, Plant
EXTT3=Page, Plant
EXTT4=Bonham, Jones, Page, Plant
EXTT5=Page, Plant
EXTT6=Page, Plant
EXTT7=Bonham, Jones, Page
EXTT8=Page, Plant, Dixon
PLAYORDER=
